<?xml version="1.0" encoding="UTF-8"?>
<svg width="815px" height="949px" viewBox="0 0 815 949" version="1.1" xmlns="http://www.w3.org/2000/svg" xmlns:xlink="http://www.w3.org/1999/xlink">
    <!-- Generator: Sketch 46.2 (44496) - http://www.bohemiancoding.com/sketch -->
    <title>RF</title>
    <desc>Created with Sketch.</desc>
    <defs>
        <filter x="-1.7%" y="-1.3%" width="103.5%" height="103.8%" filterUnits="objectBoundingBox" id="filter-1">
            <feOffset dx="0" dy="2" in="SourceAlpha" result="shadowOffsetOuter1"></feOffset>
            <feGaussianBlur stdDeviation="2" in="shadowOffsetOuter1" result="shadowBlurOuter1"></feGaussianBlur>
            <feColorMatrix values="0 0 0 0 0   0 0 0 0 0   0 0 0 0 0  0 0 0 0.5 0" type="matrix" in="shadowBlurOuter1" result="shadowMatrixOuter1"></feColorMatrix>
            <feMerge>
                <feMergeNode in="shadowMatrixOuter1"></feMergeNode>
                <feMergeNode in="SourceGraphic"></feMergeNode>
            </feMerge>
        </filter>
    </defs>
    <g id="Page-1" stroke="none" stroke-width="1" fill="none" fill-rule="evenodd">
        <g id="Group-3">
            <circle id="Oval" fill="#FFFFFF" cx="467.177419" cy="185.5" r="185.5"></circle>
            <circle id="Oval-2" fill="#FFFFFF" cx="180.5" cy="229.5" r="135.5"></circle>
            <g id="Group" filter="url(#filter-1)" transform="translate(622.500000, 508.000000) rotate(270.000000) translate(-622.500000, -508.000000) translate(420.500000, 322.500000)">
                <polygon id="Triangle" fill="#FFFFFF" points="201.528038 0 403.056076 371 0 371"></polygon>
                <polygon id="Triangle" fill="#AF8700" points="201.065446 70.7366864 344.016001 334.168639 58.1148911 334.168639"></polygon>
            </g>
            <rect id="Rectangle-2" fill="#FFFFFF" x="0" y="280" width="663" height="431" rx="60"></rect>
            <path d="M80,325 L582,325 C601.329966,325 617,340.670034 617,360 L617,628 C617,647.329966 601.329966,663 582,663 L80,663 L80,663 C60.6700338,663 45,647.329966 45,628 L45,360 C45,340.670034 60.6700338,325 80,325 L80,325 Z M180,311 C133.055796,311 95,272.944204 95,226 C95,179.055796 133.055796,141 180,141 C226.944204,141 265,179.055796 265,226 C265,272.944204 226.944204,311 180,311 Z" id="Rectangle-3" fill="#AF8700"></path>
            <circle id="Oval-3" fill="#AF8700" cx="466.5" cy="183.5" r="135.5"></circle>
            <text id="movRepo" font-family="Chalkduster" font-size="130" font-weight="normal" fill="#FFFFFF">
                <tspan x="80.038674" y="877">movRepo</tspan>
            </text>
        </g>
        <polygon id="Triangle-2" fill="#FFFFFF" points="404.19546 500.305628 285 569.611256 285 431"></polygon>
    </g>
</svg>